<svg xmlns="http://www.w3.org/2000/svg" width="1280" height="860" viewBox="0 0 1280 860" font-family="Inter, Segoe UI, sans-serif">
  <rect width="1280" height="860" fill="#f4f3ee"/>
  <!-- sidebar -->
  <rect width="240" height="860" fill="#faf9f5"/>
  <text x="24" y="46" font-size="18" font-weight="700" fill="#d97757">✳ Claude</text>
  <rect x="20" y="72" width="200" height="40" rx="10" fill="#d97757"/>
  <text x="40" y="97" font-size="14" fill="#fff">+ Start new chat</text>
  <g fill="#eceae3">
    <rect x="20" y="132" width="200" height="16" rx="5"/>
    <rect x="20" y="158" width="170" height="16" rx="5"/>
    <rect x="20" y="184" width="190" height="16" rx="5"/>
  </g>
  <!-- main -->
  <text x="760" y="330" text-anchor="middle" font-size="30" font-weight="600" fill="#3d3929">✳ Good evening, Linda</text>
  <!-- composer card -->
  <rect x="440" y="400" width="640" height="150" rx="18" fill="#ffffff" stroke="#e6e2d6"/>
  <text x="470" y="440" font-size="16" fill="#a8a290">How can I help you today?</text>
  <rect x="470" y="500" width="120" height="30" rx="15" fill="#f0eee6"/>
  <text x="486" y="520" font-size="12" fill="#6b6552">Claude Sonnet 4.5 ▾</text>
  <circle cx="1044" cy="515" r="17" fill="#d97757"/>
  <path d="M1044 507 l7 8 h-4 v7 h-6 v-7 h-4 z" fill="#fff"/>
  <!-- chips -->
  <g fill="#ffffff" stroke="#e6e2d6">
    <rect x="440" y="580" width="150" height="40" rx="12"/>
    <rect x="606" y="580" width="150" height="40" rx="12"/>
    <rect x="772" y="580" width="150" height="40" rx="12"/>
  </g>
  <text x="462" y="605" font-size="12" fill="#6b6552">✍ Write</text>
  <text x="628" y="605" font-size="12" fill="#6b6552">💡 Learn</text>
  <text x="794" y="605" font-size="12" fill="#6b6552">⌨ Code</text>
</svg>
